<?xml version="1.0" encoding="iso-8859-1"?>
<!-- Uploaded to: SVG Repo, www.svgrepo.com, Generator: SVG Repo Mixer Tools -->
<svg height="800px" width="800px" version="1.1" id="Layer_1" xmlns="http://www.w3.org/2000/svg" xmlns:xlink="http://www.w3.org/1999/xlink" 
	 viewBox="0 0 511.999 511.999" xml:space="preserve">
<path style="fill:#FF4D30;" d="M360.427,50.286c-12.897-6.56-26.493-11.943-40.646-16.008V20.97c0-11.58-9.387-20.97-20.97-20.97
	h-85.624c-11.58,0-20.97,9.39-20.97,20.97v13.309c-36.659,10.527-69.57,29.9-96.287,55.658l-11.585-6.687
	c-10.026-5.791-22.852-2.355-28.643,7.674l-42.811,74.154c-5.791,10.029-2.354,22.853,7.673,28.644l11.539,6.66
	c-4.411,17.815-6.767,36.44-6.767,55.618s2.356,37.803,6.767,55.619l-11.539,6.662c-10.029,5.79-13.466,18.615-7.673,28.642
	l42.811,74.154c5.791,10.03,18.617,13.467,28.643,7.676l11.585-6.688c26.717,25.758,59.628,45.132,96.287,55.659v13.308
	c0,11.581,9.39,20.969,20.97,20.969h85.624c11.582,0,20.97-9.389,20.97-20.969v-13.308c36.658-10.527,69.57-29.901,96.289-55.659
	l11.582,6.688c10.031,5.79,22.854,2.353,28.645-7.676l42.811-74.154c5.791-10.029,2.354-22.852-7.678-28.643l-11.534-6.66
	c4.411-17.815,6.767-36.44,6.767-55.619c0-19.177-2.356-37.802-6.767-55.618l11.534-6.66c10.033-5.789,13.47-18.617,7.678-28.644
	l-42.812-74.153c-5.791-10.03-18.616-13.464-28.645-7.676l-11.582,6.686c-9.976-9.619-20.816-18.346-32.394-26.056"/>
<g>
	<circle style="fill:#D33F2F;" cx="203.252" cy="382.909" r="28.832"/>
	<circle style="fill:#D33F2F;" cx="148.212" cy="298.151" r="17.475"/>
	<circle style="fill:#D33F2F;" cx="321.212" cy="247.485" r="50.676"/>
	<circle style="fill:#D33F2F;" cx="334.313" cy="388.152" r="13.106"/>
	<circle style="fill:#D33F2F;" cx="214.616" cy="144.384" r="26.213"/>
</g>
<g style="opacity:0.1;">
	<path style="fill:#231F20;" d="M36.349,352.443c-6.42-11.118-8.974-20.978,2.145-27.396l8.677-5.01
		c1.313-0.903,3.764-3.309,2.723-8.303c-0.023-0.107-0.033-0.2-0.051-0.299c-3.949-17.852-6.058-36.393-6.058-55.434
		c0-18.944,2.087-37.396,5.997-55.166c0.018-0.098,0.03-0.188,0.052-0.294c1.18-5.689-2.253-8.294-3.3-8.943l-8.04-4.64
		c-11.118-6.421-7.349-18.317-0.928-29.433l45.05-75.159c-9.728-4.487-21.449-0.902-26.915,8.559L12.89,165.078
		c-5.791,10.029-2.354,22.853,7.673,28.644l11.539,6.66c-4.411,17.815-6.767,36.44-6.767,55.618c0,19.178,2.356,37.803,6.767,55.619
		l-11.539,6.662c-10.029,5.79-13.466,18.615-7.673,28.642l42.811,74.154c5.345,9.256,16.678,12.878,26.276,8.832L36.349,352.443z"/>
</g>
</svg>