<?xml version="1.0" encoding="iso-8859-1"?>
<!-- Uploaded to: SVG Repo, www.svgrepo.com, Generator: SVG Repo Mixer Tools -->
<svg height="800px" width="800px" version="1.1" id="Layer_1" xmlns="http://www.w3.org/2000/svg" xmlns:xlink="http://www.w3.org/1999/xlink" 
	 viewBox="0 0 512 512" xml:space="preserve">
<g transform="translate(1 1)">
	<path style="fill:#15A143;" d="M445.915,77.102c0,28.637-23.431,52.068-52.068,52.068c-28.637,0-52.068-23.431-52.068-52.068
		s23.431-52.068,52.068-52.068C422.485,25.034,445.915,48.464,445.915,77.102"/>
	<g>
		<path style="fill:#1CD759;" d="M419.881,77.102c0,28.637-17.356,52.068-39.051,52.068s-39.051-23.431-39.051-52.068
			s17.356-52.068,39.051-52.068S419.881,48.464,419.881,77.102"/>
		<path style="fill:#1CD759;" d="M385.169,467.61c0,19.092-15.62,34.712-34.712,34.712c-19.092,0-34.712-15.62-34.712-34.712
			s15.62-34.712,34.712-34.712C369.549,432.898,385.169,448.519,385.169,467.61"/>
	</g>
	<path style="fill:#FD9808;" d="M433.766,110.946c-9.546,11.281-24.298,18.224-39.919,18.224c-28.637,0-52.068-23.431-52.068-52.068
		c0-9.546,2.603-19.092,6.942-26.902c-26.034-10.414-54.671-16.488-85.044-16.488c-124.963,0-225.627,100.664-225.627,225.627
		s100.664,225.627,225.627,225.627c18.224,0,36.447-2.603,53.803-6.942c-0.868-2.603-1.736-6.942-1.736-10.414
		c0-19.092,15.62-34.712,34.712-34.712c13.885,0,25.166,7.81,30.373,19.092c65.085-39.919,108.475-111.078,108.475-192.651
		C489.305,202.064,468.478,150.864,433.766,110.946"/>
	<path style="fill:#FFDD09;" d="M411.203,120.492c-8.678,11.281-13.885,8.678-28.637,8.678c-26.902,0-49.464-23.431-49.464-52.068
		c0-9.546,2.603-19.092,6.942-26.902c-25.166-10.414-60.746-16.488-89.383-16.488c-117.153,0-212.61,100.664-212.61,225.627
		s95.458,225.627,212.61,225.627c17.356,0,49.464-2.603,65.953-6.942c-0.868-3.471-1.736-6.942-1.736-10.414
		c0-19.092,14.753-34.712,32.976-34.712c13.017,0,23.431,7.81,28.637,19.092c60.746-39.919,86.78-111.078,86.78-192.651
		C463.271,202.064,444.18,160.41,411.203,120.492"/>
	<path style="fill:#FFFFFF;" d="M64.085,259.339c0-119.756,88.515-217.817,199.593-224.759c-4.339-0.868-8.678-0.868-13.017-0.868
		c-117.153,0-212.61,100.664-212.61,225.627s95.458,225.627,212.61,225.627c4.339,0,8.678,0,13.885,0
		C152.6,478.024,64.085,379.963,64.085,259.339"/>
	<path d="M471.949,458.932c0,5.207-3.471,8.678-8.678,8.678c-5.207,0-8.678-3.471-8.678-8.678c0-5.207,3.471-8.678,8.678-8.678
		C468.478,450.254,471.949,453.725,471.949,458.932"/>
	<path d="M506.661,85.78c0,5.207-3.471,8.678-8.678,8.678c-5.207,0-8.678-3.471-8.678-8.678c0-5.207,3.471-8.678,8.678-8.678
		C503.19,77.102,506.661,80.573,506.661,85.78"/>
	<path d="M72.763,493.644c0,5.207-3.471,8.678-8.678,8.678s-8.678-3.471-8.678-8.678s3.471-8.678,8.678-8.678
		S72.763,488.437,72.763,493.644"/>
	<path d="M393.847,137.847c-33.844,0-60.746-26.902-60.746-60.746s26.902-60.746,60.746-60.746s60.746,26.902,60.746,60.746
		S427.692,137.847,393.847,137.847z M393.847,33.712c-24.298,0-43.39,19.092-43.39,43.39s19.092,43.39,43.39,43.39
		c24.298,0,43.39-19.092,43.39-43.39S418.146,33.712,393.847,33.712z"/>
	<path d="M350.458,511c-24.298,0-43.39-19.092-43.39-43.39s19.092-43.39,43.39-43.39c24.298,0,43.39,19.092,43.39,43.39
		S374.756,511,350.458,511z M350.458,441.576c-14.753,0-26.034,11.281-26.034,26.034c0,14.753,11.281,26.034,26.034,26.034
		c14.753,0,26.034-11.281,26.034-26.034C376.492,452.858,365.21,441.576,350.458,441.576z"/>
	<path d="M46.729,85.78c-5.207,0-8.678-3.471-8.678-8.678c0-14.753-11.281-26.034-26.034-26.034c-5.207,0-8.678-3.471-8.678-8.678
		s3.471-8.678,8.678-8.678c14.753,0,26.034-11.281,26.034-26.034C38.051,2.471,41.522-1,46.729-1s8.678,3.471,8.678,8.678
		c0,14.753,11.281,26.034,26.034,26.034c5.207,0,8.678,3.471,8.678,8.678s-3.471,8.678-8.678,8.678
		c-14.753,0-26.034,11.281-26.034,26.034C55.407,82.308,51.936,85.78,46.729,85.78z M38.051,42.39
		c3.471,2.603,6.075,5.207,8.678,8.678c2.603-3.471,5.207-6.075,8.678-8.678c-3.471-2.603-6.075-5.207-8.678-8.678
		C44.125,37.183,41.522,39.786,38.051,42.39z"/>
	<path d="M445.915,398.186h-189.18c-5.207,0-8.678-3.471-8.678-8.678c0-5.207,3.471-8.678,8.678-8.678h189.18
		c5.207,0,8.678,3.471,8.678,8.678C454.593,394.715,451.122,398.186,445.915,398.186z"/>
	<path d="M202.064,398.186H81.441c-5.207,0-8.678-3.471-8.678-8.678c0-5.207,3.471-8.678,8.678-8.678h120.624
		c5.207,0,8.678,3.471,8.678,8.678C210.742,394.715,207.271,398.186,202.064,398.186z"/>
	<path d="M78.837,294.051H46.729c-5.207,0-8.678-3.471-8.678-8.678c0-5.207,3.471-8.678,8.678-8.678h32.108
		c5.207,0,8.678,3.471,8.678,8.678C87.515,290.58,84.044,294.051,78.837,294.051z"/>
	<path d="M307.068,294.051H142.186c-5.207,0-8.678-3.471-8.678-8.678c0-5.207,3.471-8.678,8.678-8.678h164.881
		c5.207,0,8.678,3.471,8.678,8.678C315.746,290.58,312.275,294.051,307.068,294.051z"/>
	<path d="M376.492,346.119H194.254c-5.207,0-8.678-3.471-8.678-8.678s3.471-8.678,8.678-8.678h182.237
		c5.207,0,8.678,3.471,8.678,8.678S381.698,346.119,376.492,346.119z"/>
	<path d="M272.356,441.576H124.831c-5.207,0-8.678-3.471-8.678-8.678c0-5.207,3.471-8.678,8.678-8.678h147.525
		c5.207,0,8.678,3.471,8.678,8.678C281.034,438.105,277.563,441.576,272.356,441.576z"/>
	<path d="M298.39,241.983h-86.78c-5.207,0-8.678-3.471-8.678-8.678s3.471-8.678,8.678-8.678h86.78c5.207,0,8.678,3.471,8.678,8.678
		S303.597,241.983,298.39,241.983z"/>
	<path d="M133.508,241.983h-86.78c-5.207,0-8.678-3.471-8.678-8.678s3.471-8.678,8.678-8.678h86.78c5.207,0,8.678,3.471,8.678,8.678
		S138.715,241.983,133.508,241.983z"/>
	<path d="M289.712,146.525h-86.78c-5.207,0-8.678-3.471-8.678-8.678s3.471-8.678,8.678-8.678h86.78c5.207,0,8.678,3.471,8.678,8.678
		S294.919,146.525,289.712,146.525z"/>
	<path d="M480.627,294.051H376.492c-5.207,0-8.678-3.471-8.678-8.678c0-5.207,3.471-8.678,8.678-8.678h104.136
		c5.207,0,8.678,3.471,8.678,8.678C489.305,290.58,485.834,294.051,480.627,294.051z"/>
	<path d="M234.173,94.458H124.831c-5.207,0-8.678-3.471-8.678-8.678c0-5.207,3.471-8.678,8.678-8.678h109.342
		c5.207,0,8.678,3.471,8.678,8.678C242.851,90.986,239.38,94.458,234.173,94.458z"/>
	<path d="M341.78,94.458h-52.068c-5.207,0-8.678-3.471-8.678-8.678c0-5.207,3.471-8.678,8.678-8.678h52.068
		c5.207,0,8.678,3.471,8.678,8.678C350.458,90.986,346.986,94.458,341.78,94.458z"/>
	<path d="M471.949,198.593h-196.99c-5.207,0-8.678-3.471-8.678-8.678s3.471-8.678,8.678-8.678h196.99
		c5.207,0,8.678,3.471,8.678,8.678S477.156,198.593,471.949,198.593z"/>
	<path d="M217.685,198.593H55.407c-5.207,0-8.678-3.471-8.678-8.678s3.471-8.678,8.678-8.678h162.278
		c5.207,0,8.678,3.471,8.678,8.678S222.024,198.593,217.685,198.593z"/>
	<path d="M263.678,493.644c-129.302,0-234.305-105.003-234.305-234.305S134.376,25.034,263.678,25.034
		c30.373,0,60.746,6.075,88.515,17.356l9.546,3.471l-5.207,8.678c-4.339,6.942-6.075,14.753-6.075,22.563
		c0,24.298,19.092,43.39,43.39,43.39c13.017,0,24.298-5.207,32.976-15.62l6.942-7.81l6.942,7.81
		c36.447,43.39,57.275,98.061,57.275,154.468c0,82.441-41.654,157.071-111.946,199.593l-7.81,5.207l-4.339-8.678
		c-4.339-8.678-13.017-13.885-23.431-13.885c-14.753,0-26.034,11.281-26.034,26.034c0,2.603,0.868,5.207,1.736,7.81l2.603,8.678
		l-8.678,2.603C300.993,491.041,282.77,493.644,263.678,493.644z M263.678,42.39c-119.756,0-216.949,97.193-216.949,216.949
		s97.193,216.949,216.949,216.949c14.753,0,29.505-1.736,43.39-4.339c0-1.736,0-2.603,0-4.339c0-24.298,19.092-43.39,43.39-43.39
		c13.017,0,25.166,6.075,32.976,15.62c60.746-39.919,97.193-106.739,97.193-180.502c0-49.464-16.488-97.193-47.729-135.376
		c-11.281,8.678-24.298,13.885-39.051,13.885c-33.844,0-60.746-26.902-60.746-60.746c0-7.81,1.736-14.753,4.339-21.695
		C314.01,46.729,288.844,42.39,263.678,42.39z"/>
</g>
</svg>