<?xml version="1.0" encoding="iso-8859-1"?>
<!-- Uploaded to: SVG Repo, www.svgrepo.com, Generator: SVG Repo Mixer Tools -->
<svg height="800px" width="800px" version="1.1" id="Layer_1" xmlns="http://www.w3.org/2000/svg" xmlns:xlink="http://www.w3.org/1999/xlink" 
	 viewBox="0 0 512.002 512.002" xml:space="preserve">
<circle style="fill:#FC6F58;" cx="256.001" cy="256" r="256"/>
<path style="fill:#F1543F;" d="M503.464,321.739L256.001,74.274l0.267,235.261l-99.392,117.846l84.173,84.173
	c4.949,0.284,9.931,0.446,14.951,0.446C374.657,512,474.444,431.268,503.464,321.739z"/>
<path style="fill:#E6F3FF;" d="M325.269,374.436H186.734V211.777c0-43.689,17.356-85.588,48.249-116.483l21.018-21.02l21.02,21.02
	c30.892,30.892,48.249,72.794,48.249,116.483V374.436z"/>
<path style="fill:#CFDBE6;" d="M325.269,211.777c0-43.689-17.356-85.588-48.249-116.483l-21.02-21.02l-0.572,0.572v299.587h69.841
	V211.777z"/>
<path style="fill:#FFD15D;" d="M277.02,95.294l-21.02-21.02l-21.02,21.02c-10.474,10.474-19.385,22.216-26.598,34.861h95.237
	C296.406,117.51,287.493,105.769,277.02,95.294z"/>
<path style="fill:#F9B54C;" d="M277.02,95.294l-21.02-21.02l-0.572,0.572v55.308h48.19
	C296.406,117.51,287.493,105.769,277.02,95.294z"/>
<path style="fill:#2B3B4E;" d="M302.577,296.012l21.221,10.611c19.199,9.599,31.327,29.222,31.327,50.688v70.072l-52.548-26.274
	V296.012z"/>
<g>
	<path style="fill:#324A5E;" d="M209.424,296.012l-21.221,10.611c-19.199,9.599-31.327,29.222-31.327,50.688v70.072l52.548-26.274
		V296.012z"/>
	<circle style="fill:#324A5E;" cx="256.001" cy="204.059" r="39.41"/>
</g>
<path style="fill:#2B3B4E;" d="M256.001,164.642c-0.191,0-0.381,0.012-0.572,0.014v78.793c0.191,0.003,0.381,0.014,0.572,0.014
	c21.766,0,39.41-17.644,39.41-39.41S277.767,164.642,256.001,164.642z"/>
<circle style="fill:#B5F1F4;" cx="256.001" cy="204.059" r="30.255"/>
<path style="fill:#84DBFF;" d="M256.001,173.797c-0.193,0-0.379,0.026-0.572,0.029v60.452c0.193,0.003,0.379,0.029,0.572,0.029
	c16.71,0,30.255-13.545,30.255-30.255S272.711,173.797,256.001,173.797z"/>
</svg>