<?xml version="1.0" encoding="iso-8859-1"?>
<!-- Uploaded to: SVG Repo, www.svgrepo.com, Generator: SVG Repo Mixer Tools -->
<svg height="800px" width="800px" version="1.1" id="Layer_1" xmlns="http://www.w3.org/2000/svg" xmlns:xlink="http://www.w3.org/1999/xlink" 
	 viewBox="0 0 512 512" xml:space="preserve">
<circle style="fill:#FAC15C;" cx="256" cy="255.999" r="144.064"/>
<g>
	<path style="fill:#77AAD4;" d="M504.115,280.011c0,0-62.406,48.996-232.107,48.022C50.765,326.763,15.89,280.011,15.89,280.011
		v-24.011c0,0,68.318,39.626,256.118,40.018c131.643,0.275,232.107-40.018,232.107-40.018V280.011z"/>
	<path style="fill:#77AAD4;" d="M504.115,280.011c0,0-62.406,48.996-232.107,48.022C50.764,326.763,7.885,280.011,7.885,280.011
		v-32.015c0,0,76.323,47.63,264.123,48.022c131.643,0.275,232.107-40.018,232.107-40.018V280.011z"/>
</g>
<path style="fill:#1D71B8;" d="M7.885,232.003c0,0,62.406-48.996,232.107-48.022c221.243,1.27,264.123,48.008,264.123,48.008v24.01
	c0,0-76.323-39.611-264.123-40.004C108.348,215.721,7.885,256.014,7.885,256.014V232.003z"/>
<g>
	<path style="fill:#F9B233;" d="M175.963,368.052c0,0,107.293-21.571,160.074,0c0,0-17.413,32.315-80.037,32.015
		C256,400.066,196.42,402.611,175.963,368.052z"/>
	<path style="fill:#F9B233;" d="M151.952,159.955c0,0,145.761,38.852,208.097,0c0,0,20.588,15.123,40.018,72.034
		c0,0-122.591,60.9-288.133,0C111.934,231.989,129.018,166.938,151.952,159.955z"/>
</g>
<g>
	<path style="fill:#1D1D1B;" d="M473.942,204.693c-20.528-8.035-49.389-14.848-83.681-19.784
		c-25.55-48.059-76.143-80.861-134.261-80.861s-108.711,32.803-134.261,80.861c-34.292,4.936-63.152,11.75-83.681,19.784
		C12.805,214.579,0,226.454,0,239.992v31.649c0,19.581,26.519,35.497,78.82,47.308c13.118,2.962,27.425,5.554,42.672,7.757
		c12.415,23.578,30.807,43.522,53.401,57.811c24.245,15.332,52.291,23.435,81.107,23.435c28.827,0,56.881-8.109,81.133-23.451
		c22.584-14.288,40.967-34.225,53.377-57.795c15.245-2.203,29.553-4.794,42.671-7.756C485.481,307.14,512,291.222,512,271.641
		v-31.649C512,226.454,499.195,214.579,473.942,204.693z M406.509,235.108c31.449,5.521,56.685,12.74,72.5,20.702
		c-10.279,5.199-25.991,10.842-49.302,16.106c-7.341,1.658-15.073,3.197-23.143,4.614c0.917-6.785,1.387-13.652,1.387-20.532
		C407.952,248.912,407.453,241.94,406.509,235.108z M496.23,239.992c0,1.53-0.841,3.506-2.858,5.791
		c-13.817-8.564-40.121-19.031-90.093-27.225c-1.435-5.643-3.192-11.156-5.24-16.528C469.745,213.477,496.23,230.671,496.23,239.992
		z M348.552,156.201c-5.185,1.967-10.676,3.714-16.424,5.213l3.979,15.26c8.578-2.237,16.683-4.988,24.144-8.187
		c13.97,16.616,24.048,36.604,28.82,58.552c-2.778,1.977-7.713,4.601-16.011,7.335l4.936,14.977
		c5.245-1.728,9.782-3.57,13.634-5.531c0.359,4.014,0.551,8.074,0.551,12.179c0,7.784-0.663,15.547-1.966,23.164
		c-39.524,5.836-85.774,8.969-134.215,8.969c-48.442,0-94.693-3.133-134.215-8.969c-1.304-7.619-1.966-15.381-1.966-23.164
		c0-5.257,0.31-10.441,0.893-15.544l5.943-11.133c-1.575-0.84-2.787-1.605-3.727-2.281c4.647-21.373,14.32-40.889,27.724-57.24
		c5.506,1.329,13.382,3.112,23.064,4.989l3.001-15.482c-5.054-0.98-9.613-1.938-13.581-2.814
		c24.345-22.736,57.007-36.676,92.866-36.676C291.707,119.818,324.24,133.638,348.552,156.201z M105.492,235.104
		c-0.944,6.834-1.443,13.806-1.443,20.895c0,6.879,0.47,13.745,1.386,20.532c-8.069-1.417-15.799-2.956-23.142-4.614
		c-23.311-5.264-39.021-10.908-49.301-16.105C45.209,249.633,67.035,241.818,105.492,235.104z M113.96,202.03
		c-2.048,5.372-3.805,10.886-5.24,16.529c-29.933,4.927-67.972,13.481-90.092,27.225c-2.018-2.286-2.859-4.263-2.859-5.793
		C15.77,230.671,42.254,213.477,113.96,202.03z M344.039,359.9c-9.439-2.448-20.074-4.384-31.654-5.751l-1.848,15.661
		c5.73,0.677,11.196,1.498,16.37,2.454C305.596,385.287,281.133,392.18,256,392.18c-24.656,0-48.669-6.631-69.693-19.18
		c4.561-0.656,9.322-1.275,14.221-1.84l-1.803-15.666c-11.135,1.282-21.672,2.836-30.64,4.511
		c-10.452-8.84-19.516-19.201-26.89-30.736c35.099,4.103,74.225,6.281,114.804,6.281s79.705-2.176,114.803-6.281
		C363.459,340.761,354.44,351.083,344.039,359.9z M429.708,303.566c-46.31,10.458-108.002,16.216-173.708,16.216
		s-127.398-5.759-173.708-16.216C29.78,291.709,15.77,277.92,15.77,271.641v-7.681c13.023,8.989,34.071,16.796,63.05,23.34
		c47.416,10.707,110.34,16.603,177.18,16.603s129.765-5.896,177.18-16.603c28.978-6.543,50.027-14.35,63.05-23.34v7.681
		C496.23,277.92,482.22,291.709,429.708,303.566z"/>
	<path style="fill:#1D1D1B;" d="M223.542,166.311c-10.211-1.062-20.734-2.48-31.277-4.216l-2.563,15.561
		c10.851,1.786,21.688,3.247,32.21,4.341L223.542,166.311z"/>
	<path style="fill:#1D1D1B;" d="M270.749,184.471l-0.134-15.769c-1.011,0.008-2.023,0.013-3.032,0.013
		c-9.077,0-18.615-0.348-28.348-1.031l-1.107,15.731c10.1,0.71,20.01,1.07,29.455,1.071
		C268.638,184.485,269.693,184.48,270.749,184.471z"/>
	<path style="fill:#1D1D1B;" d="M319.868,180.219l-2.779-15.524c-9.586,1.716-19.966,2.895-30.85,3.508l0.887,15.746
		C298.642,183.302,309.658,182.047,319.868,180.219z"/>
	<path style="fill:#1D1D1B;" d="M214.87,353.864l1.374,15.71c10.561-0.923,21.172-1.564,31.535-1.907l-0.521-15.762
		C236.61,352.259,225.713,352.917,214.87,353.864z"/>
	<path style="fill:#1D1D1B;" d="M265.149,367.376c10.412,0,20.446,0.332,29.822,0.987l1.099-15.732
		c-9.741-0.68-20.144-1.025-30.928-1.025l-1.641,0.003l0.045,15.77L265.149,367.376z"/>
	<path style="fill:#1D1D1B;" d="M135.368,249.793c8.999,2.867,19.853,5.383,32.262,7.477l2.624-15.55
		c-11.678-1.971-21.805-4.31-30.1-6.952L135.368,249.793z"/>
	<path style="fill:#1D1D1B;" d="M217.165,246.922c-10.945-0.689-21.506-1.673-31.388-2.924l-1.982,15.645
		c10.211,1.293,21.103,2.309,32.38,3.018L217.165,246.922z"/>
	<path style="fill:#1D1D1B;" d="M361.877,253.798l-3.567-15.361c-9.065,2.105-19.416,3.919-30.767,5.392l2.029,15.639
		C341.439,257.928,352.306,256.021,361.877,253.798z"/>
	<path style="fill:#1D1D1B;" d="M264.787,263.827l-0.209-15.769c-10.464,0.138-21.257,0.02-31.629-0.355l-0.571,15.76
		c7.748,0.281,15.696,0.423,23.623,0.423C258.951,263.885,261.88,263.865,264.787,263.827z"/>
	<path style="fill:#1D1D1B;" d="M313.39,261.279l-1.493-15.7c-10.084,0.959-20.685,1.656-31.511,2.071l0.606,15.758
		C292.112,262.984,303.013,262.267,313.39,261.279z"/>
</g>
</svg>